#!OML:ASF F:\VICON\USERDATA\INSTALL\rory3\rory3.ASF
:FULLY-SPECIFIED
:DEGREES
678
root 0.127088 16.9591 17.3199 -159.002 -29.4766 -177.293
lowerback -11.9581 2.21857 2.55501
upperback -9.90156 1.62241 1.36331
thorax -3.65175 0.226307 0.161639
lowerneck -13.7601 -0.0629772 -3.49089
upperneck 31.2242 -0.0933254 -2.41988
head 12.6653 -1.42628 -0.483252
rclavicle -4.85283e-014 -1.51076e-014
rhumerus -72.0703 32.7785 -117.874
rradius 38.1911
rwrist -39.5146
rhand 21.3774 2.81802
rfingers 7.12502
rthumb 45.816 -20.3527
lclavicle -4.85283e-014 -1.51076e-014
lhumerus -66.2984 -20.4968 103.472
lradius 42.2048
lwrist 10.9207
lhand 26.6523 19.6881
lfingers 7.12502
lthumb 50.6736 40.5498
rfemur -31.6548 3.06805 34.8505
rtibia 27.6455
rfoot -38.2591 -30.1293
rtoes 40.2283
lfemur -26.7908 30.9643 -25.6035
ltibia 55.4852
lfoot 29.9365 38.1685
ltoes 27.6091
679
root 0.158167 16.9399 17.3081 -159.372 -28.7603 -176.947
lowerback -11.804 2.41512 2.14264
upperback -9.96086 1.91619 1.47405
thorax -3.81273 0.394205 0.529654
lowerneck -13.2617 -0.0342041 -3.11366
upperneck 31.2427 -0.18778 -2.53134
head 12.5648 -1.45138 -0.603685
rclavicle -8.77137e-015 -4.33351e-014
rhumerus -72.3906 32.3996 -118.04
rradius 38.3296
rwrist -39.1966
rhand 21.1828 2.99627
rfingers 7.12502
rthumb 45.6353 -20.2486
lclavicle -8.77137e-015 -4.33351e-014
lhumerus -66.6699 -20.5591 103.656
lradius 42.3229
lwrist 10.9365
lhand 26.5004 19.4421
lfingers 7.12502
lthumb 50.535 40.3793
rfemur -31.343 5.02689 34.7593
rtibia 27.5876
rfoot -39.2695 -30.75
rtoes 40.8944
lfemur -26.7492 31.7737 -25.3201
ltibia 55.5887
lfoot 28.6333 37.483
ltoes 33.1419
680
root 0.148766 16.953 17.3108 -159.095 -29.4799 -177.286
lowerback -11.8485 2.08094 2.13812
upperback -10.1372 1.44879 1.41453
thorax -3.97956 0.145035 0.432853
lowerneck -12.9923 0.114947 -2.8676
upperneck 31.2938 -0.0625786 -2.58803
head 12.5269 -1.38689 -0.651025
rclavicle 6.97237e-014 2.3059e-014
rhumerus -72.8867 32.4256 -118.539
rradius 38.4245
rwrist -38.9102
rhand 20.9262 3.37867
rfingers 7.12502
rthumb 45.3969 -19.9628
lclavicle 6.97237e-014 2.3059e-014
lhumerus -67.0815 -20.294 103.598
lradius 42.7515
lwrist 10.9088
lhand 26.4274 19.3781
lfingers 7.12502
lthumb 50.4684 40.3514
rfemur -31.4734 3.76393 34.7984
rtibia 27.5831
rfoot -38.9293 -30.5664
rtoes 40.1873
lfemur -26.673 31.1145 -25.4789
ltibia 55.4794
lfoot 31.0807 36.933
ltoes 23.9022
681
root 0.136405 16.9573 17.3164 -159.09 -29.6226 -177.401
lowerback -11.6913 2.04535 2.35482
upperback -10.1928 1.38886 1.2754
thorax -4.11553 0.0961203 0.15952
lowerneck -13.0812 0.151169 -2.93395
upperneck 31.4953 -0.0814844 -2.34027
head 12.6278 -1.38186 -0.553298
rclavicle -2.3059e-014 -1.51076e-014
rhumerus -73.0443 32.4655 -118.836
rradius 38.535
rwrist -38.6669
rhand 20.5243 3.59264
rfingers 7.12502
rthumb 45.0232 -19.8978
lclavicle -2.3059e-014 -1.51076e-014
lhumerus -67.3479 -20.2904 103.509
lradius 43.0904
lwrist 10.9428
lhand 26.3961 19.2376
lfingers 7.12502
lthumb 50.4398 40.2263
rfemur -31.4393 3.17504 34.7823
rtibia 27.5986
rfoot -38.7316 -30.1525
rtoes 40.2371
lfemur -26.4829 30.9547 -25.5504
ltibia 55.4005
lfoot 30.9321 37.224
ltoes 23.7225
682
root 0.131316 16.9515 17.3087 -159.79 -29.2971 -177.278
lowerback -11.2698 2.16999 2.39842
upperback -9.96217 1.61713 1.24789
thorax -4.09016 0.233119 0.115373
lowerneck -13.1538 0.0903332 -3.05067
upperneck 31.6786 -0.237633 -2.06266
head 12.7191 -1.43673 -0.453796
rclavicle 1.61513e-014 -6.75868e-015
rhumerus -73.134 32.485 -119.061
rradius 38.6949
rwrist -38.6883
rhand 19.8882 3.705
rfingers 7.12502
rthumb 44.431 -20.0153
lclavicle 1.61513e-014 -6.75868e-015
lhumerus -67.3165 -20.3922 103.439
lradius 43.1476
lwrist 10.8597
lhand 26.4278 19.1211
lfingers 7.12502
lthumb 50.4687 40.0942
rfemur -30.659 3.20129 34.8599
rtibia 27.6456
rfoot -38.8032 -29.8316
rtoes 40.4769
lfemur -25.4452 31.5503 -25.038
ltibia 55.254
lfoot 31.0888 37.3364
ltoes 22.371
683
root 0.131061 16.951 17.3116 -159.894 -29.2186 -177.301
lowerback -11.2943 2.18837 2.25736
upperback -9.83801 1.66897 1.30251
thorax -3.94845 0.279521 0.254865
lowerneck -13.3462 0.0384333 -3.20719
upperneck 31.869 -0.309738 -1.94304
head 12.8407 -1.47914 -0.396811
rclavicle 3.40419e-014 -1.19271e-015
rhumerus -73.2397 32.7035 -119.181
rradius 38.8797
rwrist -38.6288
rhand 19.3913 4.18357
rfingers 7.12502
rthumb 43.9677 -19.7114
lclavicle 3.40419e-014 -1.19271e-015
lhumerus -67.0567 -20.3635 103.429
lradius 43.1194
lwrist 10.8112
lhand 26.454 19.2545
lfingers 7.12502
lthumb 50.4926 40.2147
rfemur -30.5432 3.18969 34.843
rtibia 27.6694
rfoot -38.7029 -29.8722
rtoes 40.4989
lfemur -25.2538 31.6375 -25.0357
ltibia 55.2085
lfoot 31.3191 37.5024
ltoes 19.4453
684
root 0.131103 16.9484 17.3134 -159.977 -29.1332 -177.14
lowerback -11.3694 2.22404 2.29606
upperback -9.76681 1.71565 1.40844
thorax -3.83311 0.307803 0.348674
lowerneck -13.617 0.0210681 -3.47199
upperneck 32.095 -0.323011 -1.7372
head 12.9951 -1.49826 -0.279971
rclavicle -1.3418e-015 -2.0276e-014
rhumerus -73.2939 32.9193 -119.178
rradius 39.0835
rwrist -38.5527
rhand 19.3707 4.51158
rfingers 7.12502
rthumb 43.9484 -19.3905
lclavicle -1.3418e-015 -2.0276e-014
lhumerus -66.924 -20.2888 103.49
lradius 43.3024
lwrist 10.8789
lhand 26.198 19.8261
lfingers 7.12502
lthumb 50.2587 40.912
rfemur -30.5512 3.68141 34.868
rtibia 27.7465
rfoot -38.987 -30.2014
rtoes 40.5924
lfemur -25.2408 31.8618 -24.9458
ltibia 55.1904
lfoot 28.9251 37.9618
ltoes 26.2041
685
root 0.138962 16.9461 17.3204 -159.589 -29.0507 -177.255
lowerback -11.7064 2.2531 2.01097
upperback -9.82323 1.74428 1.423
thorax -3.7207 0.329518 0.532633
lowerneck -13.6378 0.0107381 -3.52475
upperneck 32.1374 -0.351618 -1.65493
head 13.0177 -1.50774 -0.244046
rclavicle -2.44008e-014 3.89618e-014
rhumerus -73.2926 32.9626 -119.045
rradius 39.3633
rwrist -38.3966
rhand 19.3918 4.66062
rfingers 7.12502
rthumb 43.9681 -19.2342
lclavicle -2.44008e-014 3.89618e-014
lhumerus -66.9538 -20.3234 103.565
lradius 43.616
lwrist 11.017
lhand 26.1092 20.3845
lfingers 7.12502
lthumb 50.1776 41.5135
rfemur -30.9623 4.93737 34.4131
rtibia 27.7318
rfoot -39.7864 -30.9227
rtoes 40.9757
lfemur -25.8192 31.8543 -25.4115
ltibia 55.2345
lfoot 28.1431 38.0071
ltoes 28.4217
686
root 0.151033 16.9386 17.3156 -159.126 -28.5106 -177.726
lowerback -12.0687 2.36762 1.17171
upperback -9.84319 1.94114 1.31663
thorax -3.5732 0.466032 0.915594
lowerneck -13.4964 -0.0323579 -3.37651
upperneck 32.1321 -0.462981 -1.68372
head 12.985 -1.54414 -0.296641
rclavicle -1.29906e-013 -1.78906e-014
rhumerus -73.4429 32.9426 -119.073
rradius 39.8925
rwrist -38.2772
rhand 18.78 4.73997
rfingers 7.12502
rthumb 43.3969 -19.3642
lclavicle -1.29906e-013 -1.78906e-014
lhumerus -67.0089 -20.5241 103.661
lradius 43.7636
lwrist 11.0804
lhand 26.202 20.4373
lfingers 7.12502
lthumb 50.2624 41.5212
rfemur -31.2443 6.49542 33.5009
rtibia 27.6737
rfoot -40.6066 -31.4981
rtoes 41.7647
lfemur -26.2114 32.0946 -26.2508
ltibia 55.2593
lfoot 28.9194 37.7401
ltoes 26.5519
687
root 0.131486 16.9399 17.3225 -159.703 -29.0846 -177.091
lowerback -11.887 2.35677 2.11818
upperback -9.75816 1.86929 1.42358
thorax -3.54923 0.38972 0.48778
lowerneck -13.4484 -0.0293225 -3.20273
upperneck 32.1835 -0.501517 -1.73905
head 12.9954 -1.55148 -0.355185
rclavicle 2.14439e-014 3.65764e-014
rhumerus -73.9159 33.2469 -119.661
rradius 40.548
rwrist -38.6706
rhand 17.5579 4.64897
rfingers 7.12502
rthumb 42.2537 -19.8555
lclavicle 2.14439e-014 3.65764e-014
lhumerus -66.8942 -20.5606 103.628
lradius 43.6975
lwrist 11.054
lhand 26.395 20.7226
lfingers 7.12502
lthumb 50.4387 41.7119
rfemur -30.8465 5.3479 34.4054
rtibia 27.5755
rfoot -40.1 -31.047
rtoes 41.5893
lfemur -25.7606 31.9253 -25.3278
ltibia 55.3468
lfoot 29.087 37.7236
ltoes 26.7412
688
root 0.129683 16.9405 17.3244 -160.03 -29.3252 -176.722
lowerback -11.8337 2.30727 2.47627
upperback -9.65609 1.78909 1.56197
thorax -3.46234 0.342076 0.42376
lowerneck -13.5044 0.00298937 -3.13577
upperneck 32.2264 -0.462215 -1.76914
head 13.0248 -1.53166 -0.374111
rclavicle -6.86801e-014 -3.45885e-014
rhumerus -74.6169 33.9107 -120.581
rradius 41.2088
rwrist -39.1905
rhand 16.9145 4.54989
rfingers 7.12502
rthumb 41.6506 -20.1562
lclavicle -6.86801e-014 -3.45885e-014
lhumerus -66.7544 -20.5326 103.604
lradius 43.7362
lwrist 11.1224
lhand 26.4887 21.4304
lfingers 7.12502
lthumb 50.5243 42.3734
rfemur -30.6001 4.93726 34.9074
rtibia 27.4985
rfoot -39.9887 -30.9284
rtoes 41.5361
lfemur -25.5552 31.8096 -24.8166
ltibia 55.4193
lfoot 27.7807 38.5992
ltoes 27.8127
689
root 0.1201 16.9402 17.3262 -160.189 -29.355 -176.653
lowerback -11.8636 2.31459 2.59313
upperback -9.53346 1.80267 1.58954
thorax -3.312 0.353472 0.38874
lowerneck -13.5452 -0.00200667 -3.12923
upperneck 32.241 -0.467255 -1.77085
head 13.0397 -1.53266 -0.377091
rclavicle -2.07481e-014 4.05521e-014
rhumerus -74.8464 34.4131 -120.891
rradius 41.9247
rwrist -39.9952
rhand 18.0933 3.36847
rfingers 7.12502
rthumb 42.7549 -20.9635
lclavicle -2.07481e-014 4.05521e-014
lhumerus -66.6182 -20.5542 103.577
lradius 43.8091
lwrist 11.1975
lhand 26.6114 21.8503
lfingers 7.12502
lthumb 50.6363 42.7324
rfemur -30.3861 4.39948 35.1043
rtibia 27.3918
rfoot -39.4992 -30.731
rtoes 41.3832
lfemur -25.3642 31.8421 -24.7175
ltibia 55.4446
lfoot 27.379 38.5851
ltoes 27.4582
690
root 0.110302 16.939 17.3381 -160.06 -29.5149 -176.839
lowerback -11.8965 2.28815 2.61022
upperback -9.51679 1.76885 1.51753
thorax -3.27381 0.336159 0.301697
lowerneck -13.553 -0.011119 -3.21068
upperneck 32.2897 -0.489234 -1.68921
head 13.0627 -1.54374 -0.335619
rclavicle 1.37161e-014 1.35174e-014
rhumerus -73.8385 34.2266 -119.423
rradius 42.6938
rwrist -41.0322
rhand 21.4927 0.0485654
rfingers 7.12502
rthumb 45.923 -23.078
lclavicle 1.37161e-014 1.35174e-014
lhumerus -66.5684 -20.578 103.516
lradius 43.8991
lwrist 11.2394
lhand 26.753 21.8998
lfingers 7.12502
lthumb 50.7655 42.7111
rfemur -30.5083 3.80898 35.0197
rtibia 27.429
rfoot -39.3682 -30.2739
rtoes 41.6425
lfemur -25.4648 31.6301 -25.0104
ltibia 55.449
lfoot 28.2003 37.7951
ltoes 25.6038
691
root 0.0999879 16.9381 17.3543 -159.827 -29.7192 -177.032
lowerback -11.9665 2.24322 2.67143
upperback -9.52609 1.70017 1.43072
thorax -3.24226 0.295971 0.172258
lowerneck -13.6857 -0.0331386 -3.36641
upperneck 32.3538 -0.523986 -1.51748
head 13.1197 -1.5549 -0.248701
rclavicle -1.02126e-014 -2.62396e-014
rhumerus -74.1411 34.3946 -119.771
rradius 43.3305
rwrist -40.6228
rhand 21.1682 0.0307881
rfingers 7.12502
rthumb 45.6217 -23.2196
lclavicle -1.02126e-014 -2.62396e-014
lhumerus -66.5016 -20.65 103.512
lradius 43.8761
lwrist 11.2546
lhand 26.6757 21.644
lfingers 7.12502
lthumb 50.695 42.494
rfemur -30.7656 3.13471 35.0046
rtibia 27.4893
rfoot -38.8826 -30.2214
rtoes 40.9297
lfemur -25.7203 31.2889 -25.387
ltibia 55.4537
lfoot 27.9987 38.2183
ltoes 25.5676
